<?xml version="1.0" encoding="UTF-8"?>
<svg width="313px" height="313px" viewBox="0 0 313 313" version="1.1" xmlns="http://www.w3.org/2000/svg" xmlns:xlink="http://www.w3.org/1999/xlink">
    <!-- Generator: Sketch 58 (84663) - https://sketch.com -->
    <title>Group 47 Copy</title>
    <desc>Created with Sketch.</desc>
    <g id="Desktop" stroke="none" stroke-width="1" fill="none" fill-rule="evenodd">
        <g id="HOME/Mobile-Landing" transform="translate(-48.000000, -2726.000000)" fill="#26F316">
            <g id="Group-47-Copy" transform="translate(48.000000, 2726.000000)">
                <polygon id="Fill-1" points="188 13 201 13 201 0 188 0"></polygon>
                <polygon id="Fill-2" points="126.333069 0 126.333069 12.6666667 101 12.6666667 101 25.3330694 101 38 113.666403 38 113.666403 25.3330694 139 25.3330694 139 12.6666667 139 0"></polygon>
                <polygon id="Fill-3" points="163 24 188 24 188 11 163 11"></polygon>
                <polygon id="Fill-4" points="199.5 62 212 62 212 49.75 212 37.5 212 25.25 212 13 199.5 13 199.5 25.25 187 25.25 187 37.5 187 49.75 199.5 49.75"></polygon>
                <polygon id="Fill-5" points="188 76 201 76 201 63 188 63"></polygon>
                <polygon id="Fill-6" points="162.666491 75.75 162.666491 63.5 188 63.5 188 51.25 162.666491 51.25 162.666491 39 150 39 150 51.25 150 63.5 150 75.75 150 88 162.666491 88"></polygon>
                <polygon id="Fill-7" points="175 88 188 88 188 75 175 75"></polygon>
                <polygon id="Fill-8" points="200 88 213 88 213 75 200 75"></polygon>
                <polygon id="Fill-9" points="112.666711 88.7142857 112.666711 76.2857143 112.666711 63.8571429 125.333421 63.8571429 125.333421 76.2857143 125.333421 88.7142857 125.333421 101.142857 138.000132 101.142857 138.000132 113.571429 138.000132 126 138.000132 138.428571 112.666711 138.428571 112.666711 150.857143 125.333421 150.857143 125.333421 163.285714 138.000132 163.285714 138.000132 175.714286 138.000132 188.142857 112.666711 188.142857 112.666711 200.571429 125.333421 200.571429 125.333421 213 138.000132 213 138.000132 200.571429 150.666843 200.571429 150.666843 188.142857 150.666843 175.714286 150.666843 163.285714 150.666843 150.857143 163.333289 150.857143 163.333289 138.428571 163.333289 126 176 126 176 113.571429 176 101.142857 150.666843 101.142857 150.666843 88.7142857 138.000132 88.7142857 138.000132 76.2857143 138.000132 63.8571429 138.000132 51.4285714 125.333421 51.4285714 125.333421 39 112.666711 39 112.666711 51.4285714 100 51.4285714 100 63.8571429 100 76.2857143 100 88.7142857 100 101.142857 112.666711 101.142857"></polygon>
                <polygon id="Fill-10" points="212 101 199.5 101 199.5 113.5 187 113.5 187 126 212 126 212 113.5"></polygon>
                <polygon id="Fill-11" points="112 125 125 125 125 112 112 112"></polygon>
                <polygon id="Fill-12" points="300 113.5 300 101 275 101 275 113.5 287.5 113.5 287.5 126 300 126"></polygon>
                <polygon id="Fill-13" points="264 138 289 138 289 125 264 125"></polygon>
                <polygon id="Fill-14" points="11 150 24 150 24 137 11 137"></polygon>
                <polygon id="Fill-15" points="300.333333 139 300.333333 151.250191 275 151.250191 275 163.499872 275 175.749809 300.333333 175.749809 300.333333 188 313 188 313 139"></polygon>
                <polygon id="Fill-16" points="0 163 13 163 13 150 0 150"></polygon>
                <polygon id="Fill-17" points="100 163 113 163 113 150 100 150"></polygon>
                <polygon id="Fill-18" points="188 163 188 150.5 188 138 175.5 138 175.5 150.5 163 150.5 163 163"></polygon>
                <polygon id="Fill-19" points="11 176 49 176 49 163 11 163"></polygon>
                <polygon id="Fill-20" points="262.333377 162.857143 249.666755 162.857143 249.666755 150.285714 262.333377 150.285714 262.333377 137.714286 249.666755 137.714286 249.666755 125.142857 237.000132 125.142857 237.000132 112.571429 249.666755 112.571429 249.666755 125.142857 262.333377 125.142857 262.333377 112.571429 262.333377 100 224.333509 100 224.333509 112.571429 224.333509 125.142857 211.666623 125.142857 211.666623 137.714286 199 137.714286 199 150.285714 199 162.857143 211.666623 162.857143 211.666623 150.285714 224.333509 150.285714 224.333509 162.857143 237.000132 162.857143 237.000132 175.428571 249.666755 175.428571 249.666755 188 275 188 275 175.428571 262.333377 175.428571"></polygon>
                <polygon id="Fill-21" points="0 188 13 188 13 175 0 175"></polygon>
                <path d="M225.500152,176 L225.500152,188.444704 L225.500152,200.888889 L200.499935,200.888889 L200.499935,213.333333 L200.499935,225.778037 L187.999957,225.778037 L187.999957,238.222222 L200.499935,238.222222 L200.499935,250.666667 L187.999957,250.666667 L187.999957,263.11137 L163,263.11137 L163,275.555556 L187.999957,275.555556 L187.999957,288 L200.499935,288 L200.499935,275.555556 L225.500152,275.555556 L225.500152,263.11137 L238.00013,263.11137 L238.00013,275.555556 L238.00013,288 L250.500109,288 L250.500109,275.555556 L263.000087,275.555556 L263.000087,263.11137 L263.000087,250.666667 L275.500065,250.666667 L275.500065,263.11137 L300.500022,263.11137 L300.500022,250.666667 L313,250.666667 L313,225.778037 L288.000043,225.778037 L288.000043,238.222222 L275.500065,238.222222 L275.500065,225.778037 L263.000087,225.778037 L263.000087,213.333333 L263.000087,200.888889 L250.500109,200.888889 L250.500109,188.444704 L238.00013,188.444704 L238.00013,176 L225.500152,176 Z M212.999913,238.222222 L212.999913,225.778037 L212.999913,213.333333 L250.500109,213.333333 L250.500109,225.778037 L250.500109,238.222222 L250.500109,250.666667 L212.999913,250.666667 L212.999913,238.222222 Z" id="Fill-22"></path>
                <polygon id="Fill-23" points="38 199.5 38 212 51 212 51 199.5 51 187 38 187"></polygon>
                <path d="M74.6664074,100 L74.6664074,112.444704 L49.7775185,112.444704 L49.7775185,100 L37.3330741,100 L37.3330741,112.444704 L24.8886296,112.444704 L24.8886296,100 L0,100 L0,112.444704 L0,124.888889 L0,137.333333 L12.4444444,137.333333 L12.4444444,124.888889 L62.221963,124.888889 L62.221963,137.333333 L62.221963,149.778037 L62.221963,162.222222 L62.221963,174.666667 L49.7775185,174.666667 L49.7775185,187.11137 L62.221963,187.11137 L62.221963,199.555556 L62.221963,212 L99.5555556,212 L99.5555556,199.555556 L99.5555556,187.11137 L87.1108519,187.11137 L87.1108519,199.555556 L74.6664074,199.555556 L74.6664074,187.11137 L87.1108519,187.11137 L87.1108519,174.666667 L74.6664074,174.666667 L74.6664074,162.222222 L87.1108519,162.222222 L87.1108519,149.778037 L74.6664074,149.778037 L74.6664074,137.333333 L87.1108519,137.333333 L87.1108519,149.778037 L99.5555556,149.778037 L99.5555556,137.333333 L112,137.333333 L112,124.888889 L99.5555556,124.888889 L99.5555556,112.444704 L99.5555556,100 L74.6664074,100 Z M74.6664074,124.888889 L87.1108519,124.888889 L87.1108519,112.444444 L74.6664074,112.444444 L74.6664074,124.888889 Z" id="Fill-24"></path>
                <polygon id="Fill-25" points="187.5 186.5 212 186.5 212 174 175.25 174 175.25 186.5 163 186.5 163 199 187.5 199"></polygon>
                <polygon id="Fill-26" points="12.5 187 12.5 199.50013 0 199.50013 0 212 25 212 25 199.50013 25 187"></polygon>
                <polygon id="Fill-27" points="300 213 313 213 313 200 300 200"></polygon>
                <polygon id="Fill-28" points="225 238 238 238 238 225 225 225"></polygon>
                <polygon id="Fill-29" points="114 264 139 264 139 251 114 251"></polygon>
                <polygon id="Fill-30" points="163.333289 251.6 163.333289 239.2 176 239.2 176 226.8 176 214.4 163.333289 214.4 163.333289 202 150.666843 202 150.666843 214.4 150.666843 226.8 125.333421 226.8 125.333421 214.4 100 214.4 100 226.8 100 239.2 150.666843 239.2 150.666843 251.6 150.666843 264 163.333289 264"></polygon>
                <polygon id="Fill-31" points="100 275 113 275 113 262 100 262"></polygon>
                <polygon id="Fill-32" points="137 275 150 275 150 262 137 262"></polygon>
                <polygon id="Fill-33" points="113.666667 275 113.666667 287.666667 101 287.666667 101 300.333333 101 313 113.666667 313 113.666667 300.333333 126.333333 300.333333 126.333333 287.666667 139 287.666667 139 275"></polygon>
                <polygon id="Fill-34" points="150 288 163 288 163 275 150 275"></polygon>
                <polygon id="Fill-35" points="163 302 176 302 176 289 163 289"></polygon>
                <polygon id="Fill-36" points="263.666667 275 263.666667 287.666667 263.666667 300.333333 251 300.333333 251 313 276.333333 313 276.333333 300.333333 276.333333 287.666667 289 287.666667 289 275"></polygon>
                <polygon id="Fill-37" points="150 313 163 313 163 300 150 300"></polygon>
                <polygon id="Fill-38" points="175 313 188 313 188 300 175 300"></polygon>
                <polygon id="Fill-39" points="201 288 201 300.50026 201 313 213.50013 313 213.50013 300.50026 226 300.50026 226 288"></polygon>
                <polygon id="Fill-40" points="300.5 275 300.5 287.666667 288 287.666667 288 300.333333 288 313 313 313 313 275"></polygon>
                <path d="M0,0 L0,12.5714286 L0,25.1425952 L0,37.7142857 L0,50.2857143 L0,62.856881 L0,75.4285714 L0,88 L88,88 L88,75.4285714 L88,62.856881 L88,50.2857143 L88,37.7142857 L88,25.1425952 L88,12.5714286 L88,0 L0,0 Z M12.571466,62.856881 L12.571466,50.2857143 L12.571466,37.7142857 L12.571466,25.1425952 L12.571466,12.5714286 L75.428534,12.5714286 L75.428534,25.1425952 L75.428534,37.7142857 L75.428534,50.2857143 L75.428534,62.856881 L75.428534,75.4285714 L12.571466,75.4285714 L12.571466,62.856881 Z" id="Fill-41"></path>
                <polygon id="Fill-42" points="24 62 62 62 62 24 24 24"></polygon>
                <path d="M225,0 L225,12.5714286 L225,25.1425952 L225,37.7142857 L225,50.2857143 L225,62.856881 L225,75.4285714 L225,88 L313,88 L313,0 L225,0 Z M237.571429,62.856881 L237.571429,50.2857143 L237.571429,37.7142857 L237.571429,25.1425952 L237.571429,12.5714286 L300.428571,12.5714286 L300.428571,25.1425952 L300.428571,37.7142857 L300.428571,50.2857143 L300.428571,62.856881 L300.428571,75.4285714 L237.571429,75.4285714 L237.571429,62.856881 Z" id="Fill-43"></path>
                <polygon id="Fill-44" points="251 62 289 62 289 24 251 24"></polygon>
                <path d="M0,225 L0,237.571429 L0,250.142595 L0,262.714286 L0,275.285714 L0,287.856881 L0,300.428571 L0,313 L88,313 L88,300.428571 L88,287.856881 L88,275.285714 L88,262.714286 L88,250.142595 L88,237.571429 L88,225 L0,225 Z M12.571466,287.856881 L12.571466,275.285714 L12.571466,262.714286 L12.571466,250.142595 L12.571466,237.571429 L75.428534,237.571429 L75.428534,250.142595 L75.428534,262.714286 L75.428534,275.285714 L75.428534,287.856881 L75.428534,300.428571 L12.571466,300.428571 L12.571466,287.856881 Z" id="Fill-45"></path>
                <polygon id="Fill-46" points="24 289 62 289 62 251 24 251"></polygon>
            </g>
        </g>
    </g>
</svg>